<svg width="92" height="92" viewBox="0 0 92 92" fill="none" xmlns="http://www.w3.org/2000/svg">
<path d="M51.3571 59.4091C51.3571 68.049 44.5615 75.053 36.1786 75.053C27.7957 75.053 21 68.049 21 59.4091C21 50.7692 27.7957 43.7652 36.1786 43.7652C44.5615 43.7652 51.3571 50.7692 51.3571 59.4091Z" fill="#774625"/>
<path d="M71 46C71 63.033 65.4036 75.5 58.5 75.5C51.5964 75.5 46 63.033 46 46C46 28.967 52.0429 16.5 58.9464 16.5C65.85 16.5 71 28.967 71 46Z" fill="#774625"/>
<path fill-rule="evenodd" clip-rule="evenodd" d="M59.0832 19.5C65.1122 19.5006 69.9999 31.8123 70 46.9996C70 62.187 65.1123 74.4994 59.0832 74.5C56.016 74.5 53.2441 71.3131 51.261 66.1827C52.0137 64.4328 52.4332 62.4924 52.4332 60.4496C52.4331 56.4445 50.8236 52.8325 48.2436 50.2807C48.1929 49.2049 48.1657 48.1098 48.1657 46.9996C48.1657 31.812 53.0541 19.5 59.0832 19.5ZM59.3723 51.7249C55.4596 51.7249 52.2871 52.9594 52.2866 54.4825C52.2866 56.0059 55.4593 57.241 59.3723 57.241C63.2851 57.241 66.4571 56.0058 66.4571 54.4825C66.4566 52.9594 63.2848 51.7249 59.3723 51.7249ZM59.3723 43.6125C55.4595 43.6125 52.2869 44.8469 52.2866 46.3702C52.2866 47.8935 55.4593 49.1287 59.3723 49.1287C63.2851 49.1286 66.4571 47.8935 66.4571 46.3702C66.4568 44.847 63.2849 43.6126 59.3723 43.6125ZM59.3723 35.4993C55.4593 35.4993 52.2866 36.7345 52.2866 38.2578C52.2866 39.7811 55.4593 41.0163 59.3723 41.0163C63.2851 41.0162 66.4571 39.7811 66.4571 38.2578C66.4571 36.7345 63.2851 35.4993 59.3723 35.4993Z" fill="#FDE4BA"/>
<path fill-rule="evenodd" clip-rule="evenodd" d="M37.3976 46.4497C44.7971 46.4497 50.796 52.7178 50.796 60.4498C50.796 68.1817 44.7971 74.4498 37.3976 74.4498C29.9983 74.4496 24 68.1816 24 60.4498C24 52.718 29.9983 46.4499 37.3976 46.4497ZM37.6349 61.712C33.7222 61.7121 30.5502 62.9473 30.55 64.4705C30.55 65.9938 33.7221 67.2289 37.6349 67.229C41.5479 67.229 44.7206 65.9939 44.7206 64.4705C44.7205 62.9472 41.5478 61.712 37.6349 61.712ZM37.6349 53.5996C33.7221 53.5997 30.55 54.8348 30.55 56.3581C30.5501 57.8814 33.7221 59.1166 37.6349 59.1166C41.5479 59.1166 44.7206 57.8815 44.7206 56.3581C44.7206 54.8348 41.5479 53.5996 37.6349 53.5996Z" fill="#FDE4BA"/>
</svg>
