<svg width="114" height="114" viewBox="0 0 114 114" fill="none" xmlns="http://www.w3.org/2000/svg">
<g opacity="0.2">
<path d="M58.7041 71.3387C56.4679 79.6842 48.091 84.6908 39.9938 82.5211C31.8965 80.3515 27.1452 71.8272 29.3813 63.4817C31.6175 55.1362 39.9944 50.1297 48.0916 52.2993C56.1889 54.469 60.9402 62.9932 58.7041 71.3387Z" fill="#774625"/>
<path d="M81.1481 63.4705C76.7397 79.9231 68.1072 90.5168 61.4389 88.7301C54.7706 86.9433 52.5915 73.4526 57 57C61.4085 40.5474 70.4721 30.0692 77.1404 31.856C83.8088 33.6428 85.5566 47.0179 81.1481 63.4705Z" fill="#774625"/>
<path fill-rule="evenodd" clip-rule="evenodd" d="M76.4962 34.7892C82.3196 36.3501 83.8542 49.5074 79.9235 64.1772C75.9927 78.8471 68.0848 89.475 62.2611 87.9151C59.2984 87.1212 57.4458 83.3255 56.8581 77.8566C58.038 76.3612 58.9454 74.5955 59.4741 72.6223C60.5107 68.7537 59.8909 64.8481 58.0592 61.7156C58.2886 60.6633 58.5458 59.5984 58.8332 58.526C62.7641 43.8559 70.6724 33.2287 76.4962 34.7892ZM68.4349 65.9908C64.6556 64.9781 61.2716 65.3495 60.8769 66.8206C60.4826 68.292 63.2276 70.3062 67.0072 71.319C70.7868 72.3317 74.1704 71.9596 74.5646 70.4882C74.9583 69.0168 72.2141 67.0035 68.4349 65.9908ZM70.5346 58.1549C66.7551 57.1422 63.3711 57.5134 62.9765 58.9846C62.5823 60.4561 65.3272 62.4703 69.1069 63.4831C72.8864 64.4957 76.27 64.1237 76.6643 62.6522C77.0582 61.1809 74.3139 59.1676 70.5346 58.1549ZM72.6344 50.3181C68.8548 49.3053 65.4705 49.6773 65.0762 51.1487C64.6819 52.6201 67.4268 54.6343 71.2065 55.6471C74.9861 56.6598 78.3697 56.2877 78.7639 54.8163C79.1581 53.3449 76.4139 51.3309 72.6344 50.3181Z" fill="#FDE4BA"/>
<path fill-rule="evenodd" clip-rule="evenodd" d="M48.5743 55.208C55.7217 57.1231 59.8939 64.7302 57.8928 72.1987C55.8916 79.6672 48.4747 84.169 41.3274 82.2539C34.1802 80.3386 30.0086 72.7317 32.0098 65.2634C34.0109 57.795 41.4271 53.2931 48.5743 55.208ZM44.8534 70.0116C41.0739 68.999 37.6904 69.3711 37.296 70.8424C36.9017 72.3138 39.646 74.3278 43.4255 75.3406C47.2052 76.3534 50.5894 75.9815 50.9837 74.51C51.3778 73.0386 48.633 71.0243 44.8534 70.0116ZM46.953 62.1756C43.1735 61.163 39.7899 61.535 39.3956 63.0064C39.0014 64.4778 41.7456 66.4919 45.5251 67.5047C49.3048 68.5174 52.689 68.1455 53.0833 66.6741C53.4776 65.2026 50.7327 63.1884 46.953 62.1756Z" fill="#FDE4BA"/>
</g>
</svg>
